<svg width="35" height="34" viewBox="0 0 35 34" fill="none" xmlns="http://www.w3.org/2000/svg">
<rect x="0.171875" width="34" height="34" rx="17" fill="#023496"/>
<path d="M23.6492 10.6143C23.9453 10.6951 24.1606 10.9373 24.1606 11.2334C24.1606 18.1509 18.562 23.7227 11.6714 23.7227C11.3484 23.7227 11.1061 23.5342 11.0254 23.2382L10.3794 20.4388C10.3255 20.1428 10.4601 19.8198 10.7562 19.6852L13.7709 18.3932C14.04 18.2855 14.3361 18.3663 14.5245 18.5816L15.8703 20.2235C17.9698 19.2276 19.6656 17.5049 20.6346 15.4593L18.9927 14.1135C18.7773 13.925 18.6966 13.629 18.8042 13.3598L20.0962 10.3452C20.2308 10.0491 20.5538 9.88757 20.8499 9.96832L23.6492 10.6143Z" fill="white"/>
</svg>
