<svg width="13" height="28" viewBox="0 0 13 28" fill="none" xmlns="http://www.w3.org/2000/svg">
<path d="M11.3143 11.0625C11.3143 11.1797 11.3143 11.2734 11.3143 11.3906C11.3143 14.6484 8.85337 18.375 4.32994 18.375C2.92369 18.375 1.63462 17.9766 0.5565 17.2734C0.744 17.2969 0.9315 17.3203 1.14244 17.3203C2.29087 17.3203 3.34556 16.9219 4.18931 16.2656C3.11119 16.2422 2.19712 15.5391 1.89244 14.5547C2.0565 14.5781 2.19712 14.6016 2.36119 14.6016C2.57212 14.6016 2.8065 14.5547 2.994 14.5078C1.869 14.2734 1.02525 13.2891 1.02525 12.0938V12.0703C1.35337 12.2578 1.75181 12.3516 2.15025 12.375C1.47056 11.9297 1.04869 11.1797 1.04869 10.3359C1.04869 9.86719 1.16587 9.44531 1.37681 9.09375C2.59556 10.5703 4.42369 11.5547 6.46275 11.6719C6.41587 11.4844 6.39244 11.2969 6.39244 11.1094C6.39244 9.75 7.494 8.64844 8.85337 8.64844C9.5565 8.64844 10.1893 8.92969 10.6581 9.42188C11.1971 9.30469 11.7362 9.09375 12.2049 8.8125C12.0174 9.39844 11.6424 9.86719 11.1268 10.1719C11.619 10.125 12.1112 9.98438 12.5331 9.79688C12.2049 10.2891 11.7831 10.7109 11.3143 11.0625Z" fill="#54595F"/>
</svg>
