<svg width="9" height="13" viewBox="0 0 9 13" fill="none" xmlns="http://www.w3.org/2000/svg">
<path d="M3.90527 11.7261C0.590332 6.95801 0 6.4585 0 4.6875C0 2.28076 1.92993 0.328125 4.35938 0.328125C6.76611 0.328125 8.71875 2.28076 8.71875 4.6875C8.71875 6.4585 8.10571 6.95801 4.79077 11.7261C4.58643 12.0439 4.10962 12.0439 3.90527 11.7261ZM4.35938 6.50391C5.3584 6.50391 6.17578 5.70923 6.17578 4.6875C6.17578 3.68848 5.3584 2.87109 4.35938 2.87109C3.33765 2.87109 2.54297 3.68848 2.54297 4.6875C2.54297 5.70923 3.33765 6.50391 4.35938 6.50391Z" fill="#023496"/>
</svg>
