<svg width="12" height="28" viewBox="0 0 12 28" fill="none" xmlns="http://www.w3.org/2000/svg">
<path d="M3.07837 18H0.898687V10.9922H3.07837V18ZM1.97681 10.0547C1.29712 10.0547 0.734625 9.46875 0.734625 8.76562C0.734625 8.08594 1.29712 7.52344 1.97681 7.52344C2.67994 7.52344 3.24244 8.08594 3.24244 8.76562C3.24244 9.46875 2.67994 10.0547 1.97681 10.0547ZM11.2112 18H9.05494V14.6016C9.05494 13.7812 9.0315 12.75 7.9065 12.75C6.7815 12.75 6.61744 13.6172 6.61744 14.5312V18H4.43775V10.9922H6.52369V11.9531H6.54712C6.85181 11.4141 7.55494 10.8281 8.60962 10.8281C10.8127 10.8281 11.2346 12.2812 11.2346 14.1562V18H11.2112Z" fill="#54595F"/>
</svg>
