<svg width="12" height="28" viewBox="0 0 12 28" fill="none" xmlns="http://www.w3.org/2000/svg">
<path d="M11.7129 13.5C11.7129 16.7109 9.11137 19.3125 5.90044 19.3125C5.29106 19.3125 4.70512 19.2422 4.16606 19.0547C4.40044 18.6797 4.752 18.0469 4.89262 17.5312C4.96294 17.2734 5.24419 16.1484 5.24419 16.1484C5.43169 16.5234 5.99419 16.8281 6.58012 16.8281C8.33794 16.8281 9.60356 15.2109 9.60356 13.2188C9.60356 11.2969 8.03325 9.84375 6.01762 9.84375C3.50981 9.84375 2.17387 11.5312 2.17387 13.3594C2.17387 14.2266 2.61919 15.2812 3.34575 15.6328C3.46294 15.6797 3.53325 15.6562 3.55669 15.5391C3.55669 15.4688 3.67387 15.0703 3.72075 14.8828C3.72075 14.8359 3.72075 14.7656 3.67387 14.7188C3.4395 14.4375 3.252 13.8984 3.252 13.3828C3.252 12.1172 4.21294 10.875 5.877 10.875C7.28325 10.875 8.29106 11.8359 8.29106 13.2422C8.29106 14.8125 7.49419 15.8906 6.46294 15.8906C5.90044 15.8906 5.47856 15.4219 5.59575 14.8594C5.75981 14.1562 6.08794 13.4062 6.08794 12.9141C6.08794 12.4688 5.85356 12.0938 5.36137 12.0938C4.77544 12.0938 4.30669 12.7031 4.30669 13.5C4.30669 14.0156 4.47075 14.3672 4.47075 14.3672C4.47075 14.3672 3.90825 16.8047 3.79106 17.25C3.67387 17.7656 3.72075 18.4688 3.76762 18.9141C1.61137 18.0703 0.0879374 15.9844 0.0879374 13.5C0.0879374 10.2891 2.6895 7.6875 5.90044 7.6875C9.11137 7.6875 11.7129 10.2891 11.7129 13.5Z" fill="#54595F"/>
</svg>
