<svg width="12" height="10" viewBox="0 0 12 10" fill="none" xmlns="http://www.w3.org/2000/svg">
<path d="M11.5818 3.57068C11.6741 3.50146 11.8125 3.57068 11.8125 3.68604V8.39258C11.8125 9.0155 11.3049 9.5 10.7051 9.5H1.10742C0.484497 9.5 0 9.0155 0 8.39258V3.68604C0 3.57068 0.115356 3.50146 0.207642 3.57068C0.738281 3.98596 1.40735 4.49353 3.76062 6.20081C4.24512 6.54688 5.07568 7.30823 5.90625 7.30823C6.71375 7.30823 7.56738 6.54688 8.02881 6.20081C10.3821 4.49353 11.0511 3.98596 11.5818 3.57068ZM5.90625 6.54688C5.35254 6.56995 4.59119 5.87781 4.19897 5.60095C1.13049 3.38611 0.89978 3.17847 0.207642 2.62476C0.0692139 2.53247 0 2.37097 0 2.1864V1.74805C0 1.14819 0.484497 0.640625 1.10742 0.640625H10.7051C11.3049 0.640625 11.8125 1.14819 11.8125 1.74805V2.1864C11.8125 2.37097 11.7202 2.53247 11.5818 2.62476C10.8896 3.17847 10.6589 3.38611 7.59045 5.60095C7.19824 5.87781 6.43689 6.56995 5.90625 6.54688Z" fill="#023496"/>
</svg>
